# xmcd
#
# Track frame offsets: 
#        150
#        17559
#        36941
#        60299
#        84719
#        98888
#        119139
#        137623
#
# Disc length: 2206 seconds
#
# Revision: 0
# Processed by: cddbd v1.5.2PL0 Copyright (c) Steve Scherf et al.
# Submitted via: ExactAudioCopy v1.0b3
#
DISCID=65089c08
DTITLE=Kowloon Walled City - Gambling on the Richter Scale
DYEAR=2009
DGENRE=Rock and Roll
TTITLE0=Annandale
TTITLE1=Diabetic Feet
TTITLE2=Clockwork
TTITLE3=Sleep Debt
TTITLE4=Paper Houses
TTITLE5=Gambling on the Richter Scale
TTITLE6=Bone Loss
TTITLE7=More Like the Shit Factory
EXTD=
EXTT0=
EXTT1=
EXTT2=
EXTT3=
EXTT4=
EXTT5=
EXTT6=
EXTT7=
PLAYORDER=
